<svg width="55" height="55" viewBox="0 0 55 55" fill="none" xmlns="http://www.w3.org/2000/svg">
<path fill-rule="evenodd" clip-rule="evenodd" d="M27 13C22.926 13 22.416 13.017 20.816 13.09C19.219 13.163 18.128 13.417 17.174 13.788C16.174 14.164 15.267 14.754 14.517 15.518C13.7542 16.2671 13.1639 17.1735 12.787 18.174C12.418 19.128 12.163 20.22 12.09 21.817C12.018 23.416 12 23.925 12 28C12 32.075 12.017 32.584 12.09 34.184C12.163 35.781 12.417 36.872 12.788 37.826C13.164 38.826 13.754 39.733 14.518 40.483C15.2672 41.2458 16.1735 41.8361 17.174 42.213C18.128 42.583 19.219 42.837 20.816 42.91C22.416 42.983 22.926 43 27 43C31.074 43 31.584 42.983 33.184 42.91C34.781 42.837 35.872 42.583 36.826 42.212C37.826 41.836 38.733 41.246 39.483 40.482C40.2458 39.7329 40.8361 38.8265 41.213 37.826C41.583 36.872 41.837 35.781 41.91 34.184C41.983 32.584 42 32.074 42 28C42 23.926 41.983 23.416 41.91 21.816C41.837 20.219 41.583 19.128 41.212 18.174C40.8354 17.1731 40.245 16.2663 39.482 15.517C38.7329 14.7542 37.8265 14.1639 36.826 13.787C35.872 13.418 34.78 13.163 33.183 13.09C31.584 13.018 31.075 13 27 13ZM27 15.703C31.005 15.703 31.48 15.718 33.062 15.79C34.524 15.857 35.318 16.1 35.847 16.307C36.547 16.578 37.047 16.904 37.572 17.428C38.097 17.953 38.422 18.453 38.693 19.153C38.899 19.682 39.143 20.476 39.21 21.938C39.282 23.52 39.297 23.995 39.297 28C39.297 32.005 39.282 32.48 39.21 34.062C39.143 35.524 38.9 36.318 38.693 36.847C38.4529 37.4985 38.0699 38.088 37.572 38.572C37.0881 39.07 36.4986 39.4531 35.847 39.693C35.318 39.899 34.524 40.143 33.062 40.21C31.48 40.282 31.006 40.297 27 40.297C22.994 40.297 22.52 40.282 20.938 40.21C19.476 40.143 18.682 39.9 18.153 39.693C17.5015 39.4529 16.912 39.0699 16.428 38.572C15.9302 38.088 15.5471 37.4985 15.307 36.847C15.101 36.318 14.857 35.524 14.79 34.062C14.718 32.48 14.703 32.005 14.703 28C14.703 23.995 14.718 23.52 14.79 21.938C14.857 20.476 15.1 19.682 15.307 19.153C15.578 18.453 15.904 17.953 16.428 17.428C16.9119 16.93 17.5014 16.547 18.153 16.307C18.682 16.101 19.476 15.857 20.938 15.79C22.52 15.718 22.995 15.703 27 15.703Z" fill="#19171B"/>
<path fill-rule="evenodd" clip-rule="evenodd" d="M27 33.0049C26.3427 33.0049 25.6919 32.8754 25.0847 32.6239C24.4774 32.3724 23.9257 32.0037 23.4609 31.539C22.9962 31.0742 22.6275 30.5225 22.376 29.9152C22.1245 29.308 21.995 28.6572 21.995 27.9999C21.995 27.3426 22.1245 26.6918 22.376 26.0846C22.6275 25.4773 22.9962 24.9256 23.4609 24.4608C23.9257 23.9961 24.4774 23.6274 25.0847 23.3759C25.6919 23.1244 26.3427 22.9949 27 22.9949C28.3274 22.9949 29.6005 23.5222 30.5391 24.4608C31.4777 25.3994 32.005 26.6725 32.005 27.9999C32.005 29.3273 31.4777 30.6003 30.5391 31.539C29.6005 32.4776 28.3274 33.0049 27 33.0049ZM27 20.2899C24.9552 20.2899 22.9941 21.1022 21.5482 22.5481C20.1023 23.994 19.29 25.9551 19.29 27.9999C19.29 30.0447 20.1023 32.0058 21.5482 33.4517C22.9941 34.8976 24.9552 35.7099 27 35.7099C29.0448 35.7099 31.0059 34.8976 32.4518 33.4517C33.8977 32.0058 34.71 30.0447 34.71 27.9999C34.71 25.9551 33.8977 23.994 32.4518 22.5481C31.0059 21.1022 29.0448 20.2899 27 20.2899ZM36.953 20.1499C36.953 20.6332 36.761 21.0968 36.4192 21.4386C36.0774 21.7804 35.6139 21.9724 35.1305 21.9724C34.6471 21.9724 34.1836 21.7804 33.8418 21.4386C33.5 21.0968 33.308 20.6332 33.308 20.1499C33.308 19.6665 33.5 19.203 33.8418 18.8612C34.1836 18.5194 34.6471 18.3274 35.1305 18.3274C35.6139 18.3274 36.0774 18.5194 36.4192 18.8612C36.761 19.203 36.953 19.6665 36.953 20.1499Z" fill="#19171B"/>
<circle cx="27.5" cy="27.5" r="26.5" stroke="#19171B" stroke-width="2"/>
</svg>
