<svg width="55" height="55" viewBox="0 0 55 55" fill="none" xmlns="http://www.w3.org/2000/svg">
<path d="M43 15.2059V40.7941C43 41.3792 42.7676 41.9402 42.3539 42.3539C41.9402 42.7676 41.3792 43 40.7941 43H15.2059C14.6208 43 14.0598 42.7676 13.6461 42.3539C13.2324 41.9402 13 41.3792 13 40.7941V15.2059C13 14.6208 13.2324 14.0598 13.6461 13.6461C14.0598 13.2324 14.6208 13 15.2059 13H40.7941C41.3792 13 41.9402 13.2324 42.3539 13.6461C42.7676 14.0598 43 14.6208 43 15.2059ZM21.8235 24.4706H17.4118V38.5882H21.8235V24.4706ZM22.2206 19.6176C22.2229 19.2839 22.1595 18.953 22.0339 18.6438C21.9084 18.3346 21.7231 18.0532 21.4888 17.8156C21.2545 17.578 20.9756 17.3888 20.6682 17.259C20.3608 17.1292 20.0308 17.0611 19.6971 17.0588H19.6176C18.939 17.0588 18.2882 17.3284 17.8083 17.8083C17.3284 18.2882 17.0588 18.939 17.0588 19.6176C17.0588 20.2963 17.3284 20.9471 17.8083 21.427C18.2882 21.9069 18.939 22.1765 19.6176 22.1765C19.9514 22.1847 20.2835 22.1271 20.5949 22.0069C20.9064 21.8867 21.1911 21.7063 21.4328 21.4761C21.6746 21.2458 21.8685 20.9702 22.0037 20.6649C22.1389 20.3597 22.2126 20.0308 22.2206 19.6971V19.6176ZM38.5882 30.0118C38.5882 25.7676 35.8882 24.1176 33.2059 24.1176C32.3276 24.0737 31.4532 24.2607 30.6698 24.6602C29.8864 25.0596 29.2214 25.6575 28.7412 26.3941H28.6176V24.4706H24.4706V38.5882H28.8824V31.0794C28.8186 30.3104 29.0608 29.5472 29.5565 28.9558C30.0521 28.3643 30.7611 27.9923 31.5294 27.9206H31.6971C33.1 27.9206 34.1412 28.8029 34.1412 31.0265V38.5882H38.5529L38.5882 30.0118Z" fill="#19171B"/>
<circle cx="27.5" cy="27.5" r="26.5" stroke="#19171B" stroke-width="2"/>
</svg>
