<svg width="55" height="55" viewBox="0 0 55 55" fill="none" xmlns="http://www.w3.org/2000/svg">
<path d="M41.2541 21.2001C41.2744 21.494 41.2744 21.7878 41.2744 22.0844C41.2744 31.1209 34.3952 41.5427 21.8161 41.5427V41.5373C18.1002 41.5427 14.4615 40.4783 11.3333 38.4714C11.8737 38.5364 12.4167 38.5689 12.9611 38.5703C16.0405 38.573 19.0319 37.5398 21.4545 35.6371C18.5281 35.5816 15.962 33.6736 15.0655 30.888C16.0906 31.0857 17.1469 31.0451 18.153 30.7702C14.9626 30.1256 12.6672 27.3224 12.6672 24.0669C12.6672 24.0372 12.6672 24.0087 12.6672 23.9803C13.6179 24.5098 14.6823 24.8036 15.771 24.8361C12.7661 22.8279 11.8398 18.8303 13.6544 15.7048C17.1266 19.9773 22.2495 22.5746 27.7488 22.8495C27.1977 20.4743 27.9506 17.9853 29.7273 16.3156C32.4817 13.7264 36.8137 13.8591 39.403 16.6121C40.9345 16.3102 42.4025 15.7482 43.7458 14.9519C43.2353 16.535 42.1668 17.8797 40.7395 18.7342C42.0951 18.5744 43.4195 18.2114 44.6667 17.6576C43.7485 19.0334 42.5921 20.2319 41.2541 21.2001Z" fill="#F9F9F9"/>
<circle cx="27.5" cy="27.5" r="26.5" stroke="#F9F9F9" stroke-width="2"/>
</svg>
